<!DOCTYPE svg PUBLIC "-//W3C//DTD SVG 1.1//EN" "http://www.w3.org/Graphics/SVG/1.1/DTD/svg11.dtd">
<!-- Uploaded to: SVG Repo, www.svgrepo.com, Transformed by: SVG Repo Mixer Tools -->
<svg fill="#ff8000" height="800px" width="800px" version="1.1" id="Layer_1" xmlns="http://www.w3.org/2000/svg" xmlns:xlink="http://www.w3.org/1999/xlink" viewBox="0 0 512 512" xml:space="preserve" stroke="#ff8000">
<g id="SVGRepo_bgCarrier" stroke-width="0"/>
<g id="SVGRepo_tracerCarrier" stroke-linecap="round" stroke-linejoin="round"/>
<g id="SVGRepo_iconCarrier"> <g> <g> <path d="M87.912,364.422L32.449,220.005c-3.322-8.652-13.03-12.97-21.681-9.648c-8.651,3.322-12.971,13.029-9.648,21.681 L61.886,390.26c3.044,7.924,11.496,12.287,19.665,10.279l8.915-2.188l-6.678,81.665c-0.458,6.455,4.648,11.977,11.17,11.977 c5.818,0,10.729-4.501,11.147-10.396l7.187-88.85l22.729-5.579c0.008,0.068,0.009,0.136,0.018,0.205 c3.483-16.331-2.312,10.846,7.824-36.685L87.912,364.422z"/> </g> </g> <g> <g> <path d="M511.932,452.075l-16.611-151.088c9.171-1.052,15.777-9.315,14.767-18.5c-1.012-9.212-9.313-15.862-18.513-14.846 l-128.367,14.112c0.378,8.919-2.416,18.002-8.562,25.416c-4.194,5.06-9.444,8.724-15.161,10.954l133.597-14.687l16.61,151.085 c0.676,6.141,6.21,10.569,12.342,9.898C508.177,463.743,512.608,458.217,511.932,452.075z"/> </g> </g> <g> <g> <path d="M331.263,471.938l-16.607-151.086l5.509-0.606c-6.453-0.993-12.731-3.687-18.124-8.157l-22.553-18.695 c-4.515,3.452-7.176,9.098-6.511,15.159c0.928,8.447,8.224,15.975,19.438,14.745l16.609,151.085 c0.669,6.091,6.137,10.567,12.342,9.898C327.506,483.604,331.938,478.079,331.263,471.938z"/> </g> </g> <g> <g> <path d="M458.056,185.8c-5.415-2.966-12.217-0.983-15.186,4.437l-30.136,55.008h-29.378c2.714-9.57-2.716-19.59-12.276-22.492 l-65.609-19.918l-18.832-38.034c-9.19-4.273-16.997-10.85-22.716-19.062c-4.593-6.596-7.78-14.199-9.289-22.11 c-10.944-4.43-23.177-4.838-34.476-1.011c-13.084,4.431-23.722,14.123-29.35,26.738 c-49.472,110.898-46.305,102.909-46.978,107.401c-0.604,2.976-0.617,6.12,0.107,9.272l19.105,83.108l-25.255,115.347 c-2.529,11.861,5.035,23.524,16.895,26.054c11.87,2.528,23.526-5.044,26.054-16.896l26.269-120.105 c0.01-0.047,0.017-0.094,0.026-0.141l-11.035-34.104l30.503,42.655l13.901,110.867c1.539,12.046,12.558,20.539,24.563,18.997 c12.03-1.536,20.534-12.533,18.997-24.562l-14.603-116.357c-0.46-3.602-1.807-7.034-3.92-9.99 c-4.673-6.534-32.776-45.833-37.538-52.493l14.163-26.044c-6.909-5.726-4.515-3.742-11.407-9.456 c-5.29-4.384-7.744-11.036-7.177-17.398l6.771-70.225l11.992,66.861c0.763,4.253,3.007,8.099,6.333,10.856l65.635,54.408 c7.78,6.451,19.317,5.368,25.764-2.41c6.45-7.779,5.371-19.316-2.41-25.764l-60.482-50.137l-10.812-60.276 c22.429,46.305,18.668,38.54,21.49,44.367c67.055,55.586,67.183,53.945,72.03,64.425h59.57c4.085,0,7.847-2.227,9.812-5.811 l33.321-60.82C465.46,195.567,463.474,188.769,458.056,185.8z"/> </g> </g> <g> <g> <path d="M310.844,72.621c-14.321,0-28.193,7.635-35.516,21.1c-14.681,26.996,5.062,59.688,35.444,59.688 c14.321,0,28.193-7.635,35.516-21.1C360.969,105.311,341.226,72.617,310.844,72.621z"/> </g> </g> <g> <g> <path d="M276.38,27.256c-4.528-14.233-30.743-5.035-27.099,6.419c0.802,2.517,3.301,3.001,5.044,2.446 c3.485-1.109,0.484-5.626,7.068-7.72c3.227-1.027,6.26-0.428,7.204,2.54c2.053,6.45-8.255,8.901-4.628,20.306 c1.068,3.357,2.28,4.037,4.925,3.195c3.162-1.006,3.356-2.632,2.966-3.857c-1.067-3.357-1.619-5.314,1.049-9.218 C274.22,39.458,278.31,33.324,276.38,27.256z"/> </g> </g> <g> <g> <path d="M276.927,62.266c-0.861-2.712-3.839-4.252-6.551-3.39c-2.711,0.862-4.186,3.82-3.325,6.531 c0.842,2.646,3.712,4.292,6.487,3.409C276.313,67.933,277.77,64.912,276.927,62.266z"/> </g> </g> <g> <g> <path d="M241.136,60.907c-2.218-0.199-4.056,0.836-4.244,2.946c-0.575,6.438-0.643,15.757-1.218,22.194 c-0.15,1.678,1.248,2.51,2.98,2.666c1.298,0.116,3.199-0.423,3.349-2.101c0.575-6.437,2.158-15.621,2.732-22.059 C244.923,62.443,243.245,61.095,241.136,60.907z"/> </g> </g> <g> <g> <path d="M238.374,92.451c-2.379-0.211-4.334,1.521-4.536,3.794c-0.199,2.217,1.413,4.325,3.792,4.537 c2.218,0.198,4.287-1.581,4.485-3.799C242.319,94.712,240.592,92.649,238.374,92.451z"/> </g> </g> </g>
</svg>